HIERARCHY
ROOT Hips
{
	OFFSET 0.00000 0.00000 0.00000
	CHANNELS 6 Xposition Yposition Zposition Zrotation Yrotation Xrotation 
	JOINT LHipJoint
	{
		OFFSET 0 0 0
		CHANNELS 3 Zrotation Yrotation Xrotation
		JOINT LeftHip
		{
			OFFSET 1.77779 -1.88989 0.48267
			CHANNELS 3 Zrotation Yrotation Xrotation
			JOINT LeftKnee
			{
				OFFSET 2.53442 -6.96327 0.00000
				CHANNELS 3 Zrotation Yrotation Xrotation
				JOINT LeftAnkle
				{
					OFFSET 2.71068 -7.44755 0.00000
					CHANNELS 3 Zrotation Yrotation Xrotation
					JOINT LeftToe
					{
						OFFSET 0.17992 -0.49431 2.22524
						CHANNELS 3 Zrotation Yrotation Xrotation
						End Site
						{
							OFFSET 0.00000 -0.00000 1.14687
						}
					}
				}
			}
		}
	}
	JOINT RHipJoint
	{
		OFFSET 0 0 0
		CHANNELS 3 Zrotation Yrotation Xrotation
		JOINT RightHip
		{
			OFFSET -1.58469 -1.88989 0.48267
			CHANNELS 3 Zrotation Yrotation Xrotation
			JOINT RightKnee
			{
				OFFSET -2.60386 -7.15404 0.00000
				CHANNELS 3 Zrotation Yrotation Xrotation
				JOINT RightAnkle
				{
					OFFSET -2.73334 -7.50979 0.00000
					CHANNELS 3 Zrotation Yrotation Xrotation
					JOINT RightToe
					{
						OFFSET -0.25618 -0.70384 2.21822
						CHANNELS 3 Zrotation Yrotation Xrotation
						End Site
						{
							OFFSET -0.00000 -0.00000 1.16381
						}
					}
				}
			}
		}
	}
	JOINT lowerback
	{
		OFFSET 0 0 0
		CHANNELS 3 Zrotation Yrotation Xrotation
		JOINT Chest
		{
			OFFSET 0.03410 2.01612 -0.22230
			CHANNELS 3 Zrotation Yrotation Xrotation
			JOINT Chest2
			{
				OFFSET 0.03465 2.03012 0.00937
				CHANNELS 3 Zrotation Yrotation Xrotation
				JOINT lowerneck
				{
					OFFSET 0 0 0
					CHANNELS 3 Zrotation Yrotation Xrotation
					JOINT Neck
					{
						OFFSET -0.00219 1.70459 0.20857
						CHANNELS 3 Zrotation Yrotation Xrotation
						JOINT Head
						{
							OFFSET 0.02518 1.72339 -0.22179
							CHANNELS 3 Zrotation Yrotation Xrotation
							End Site
							{
								OFFSET 0.00282 1.74122 -0.09823
							}
						}
					}
				}
				JOINT LeftCollar
				{
					OFFSET 0 0 0
					CHANNELS 3 Zrotation Yrotation Xrotation
					JOINT LeftShoulder
					{
						OFFSET 3.36358 1.00547 -0.37661
CHANNELS 3 Zrotation Xrotation Yrotation
						JOINT LeftElbow
						{
OFFSET 0 -5.065070 0.000000
CHANNELS 3 Zrotation Xrotation Yrotation
							JOINT LeftWrist
							{
OFFSET 0 -3.601960 0.000000
CHANNELS 3 Zrotation Xrotation Yrotation
								JOINT lhand
								{
									OFFSET 0 0 0
CHANNELS 3 Zrotation Xrotation Yrotation
									JOINT LFingers
									{
OFFSET 0 -0.450350 0.000000
CHANNELS 3 Zrotation Xrotation Yrotation
										End Site
										{
OFFSET 0 -0.363080 0.000000
										}
									}
								}
								JOINT LThumb
								{
OFFSET 0 0.000000 0.000000
CHANNELS 3 Zrotation Xrotation Yrotation
									End Site
									{
OFFSET 0 -0.368620 0.368620
									}
								}
							}
						}
					}
				}
				JOINT RightCollar
				{
					OFFSET 0 0 0
					CHANNELS 3 Zrotation Yrotation Xrotation
					JOINT RightShoulder
					{
						OFFSET -3.50159 0.80383 -0.71526
CHANNELS 3 Zrotation Xrotation Yrotation
						JOINT RightElbow
						{
OFFSET 0 -5.363940 0.000000
CHANNELS 3 Zrotation Xrotation Yrotation
							JOINT RightWrist
							{
OFFSET 0 -3.580350 0.000000
CHANNELS 3 Zrotation Xrotation Yrotation
								JOINT rhand
								{
									OFFSET 0 0 0
CHANNELS 3 Zrotation Xrotation Yrotation
									JOINT RFingers
									{
OFFSET 0 -0.663750 0.000000
CHANNELS 3 Zrotation Xrotation Yrotation
										End Site
										{
OFFSET 0 -0.535130 0.000000
										}
									}
								}
								JOINT RThumb
								{
OFFSET 0 0.000000 0.000000
CHANNELS 3 Zrotation Xrotation Yrotation
									End Site
									{
OFFSET 0 -0.543300 0.543300
									}
								}
							}
						}
					}
				}
			}
		}
	}
}
MOTION
Frames: 10
Frame Time: 0.008333333333333333
0.386100 16.903800 -30.428200 -5.642000 0.155800 3.972500 0.000000 0.000000 0.000000 -8.374500 -5.091800 -29.489100 22.354300 19.866600 96.898400 -0.259800 -11.957000 12.785300 0.010300 0.655900 1.802600 0.000000 0.000000 0.000000 34.203100 17.841600 -17.331100 -7.273100 -15.557600 49.899900 -2.223700 -0.743500 -28.501600 -0.040300 -1.295000 3.560900 2.511100 1.292700 17.948600 3.499800 2.564000 0.685600 1.717600 1.199100 -9.404600 -1.934800 -3.451000 -21.984200 2.149000 -4.352600 8.162700 0.510100 -1.987400 6.081700 0.000000 -0.000000 0.000000 4.662000 19.917000 -42.218900 112.268400 -58.040800 79.158200 30.475100 -24.776400 -4.544700 0.000000 0.000000 0.000000 -7.125000 0.000000 0.000000 3.180000 35.234800 0.763700 0.000000 -0.000000 0.000000 -4.207300 4.727900 42.166500 -103.193800 -59.331900 -71.400500 -29.432700 -26.543400 -36.699800 0.000000 0.000000 0.000000 7.125000 0.000000 -0.000000 2.334700 -10.548300 2.724700
0.388511 16.910562 -30.306014 -5.637150 0.316147 4.064701 0.000000 0.000000 0.000000 -8.328691 -5.421500 -30.062701 22.374558 19.864244 96.958010 -0.283494 -11.896752 12.080313 0.015676 0.165992 0.455922 0.000000 0.000000 0.000000 34.298377 17.538505 -16.851529 -7.179846 -15.480198 49.549138 -2.262831 -0.720193 -28.739626 -0.042850 -1.334186 3.668842 2.573953 1.267980 17.893313 3.499634 2.548536 0.556264 1.686894 1.187987 -9.513706 -2.018659 -3.448423 -21.635711 2.223215 -4.340212 8.017512 0.554330 -1.981857 5.984345 0.000000 0.000000 0.000000 4.676355 20.507727 -42.309937 112.568392 -57.984044 79.412410 30.416570 -24.951739 -4.315736 0.000000 0.000000 0.000000 -7.125000 0.000000 0.000000 3.129563 34.967787 0.771044 0.000000 0.000000 0.000000 -4.217692 4.614915 42.356749 -103.877559 -59.254498 -71.987819 -29.418677 -26.710010 -36.578501 0.000000 0.000000 0.000000 7.125000 0.000000 0.000000 2.314442 -10.419795 2.696932
0.390922 16.917324 -30.183828 -5.632301 0.476493 4.156901 0.000000 0.000000 0.000000 -8.282881 -5.751200 -30.636301 22.394816 19.861889 97.017621 -0.307189 -11.836505 11.375325 0.021053 -0.323916 -0.890757 0.000000 0.000000 0.000000 34.393654 17.235409 -16.371958 -7.086592 -15.402796 49.198377 -2.301961 -0.696887 -28.977651 -0.045399 -1.373372 3.776783 2.636806 1.243260 17.838026 3.499467 2.533072 0.426928 1.656188 1.176874 -9.622811 -2.102518 -3.445845 -21.287222 2.297430 -4.327825 7.872325 0.598559 -1.976315 5.886989 0.000000 0.000000 0.000000 4.690711 21.098454 -42.400973 112.868383 -57.927288 79.666620 30.358041 -25.127078 -4.086773 0.000000 0.000000 0.000000 -7.125000 0.000000 0.000000 3.079125 34.700773 0.778388 0.000000 0.000000 0.000000 -4.228085 4.501929 42.546997 -104.561319 -59.177096 -72.575137 -29.404655 -26.876619 -36.457202 0.000000 0.000000 0.000000 7.125000 0.000000 0.000000 2.294184 -10.291291 2.669163
0.393333 16.924086 -30.061642 -5.627451 0.636840 4.249102 0.000000 0.000000 0.000000 -8.237072 -6.080899 -31.209902 22.415074 19.859533 97.077231 -0.330883 -11.776257 10.670338 0.026429 -0.813824 -2.237435 0.000000 0.000000 0.000000 34.488930 16.932314 -15.892387 -6.993339 -15.325394 48.847615 -2.341092 -0.673580 -29.215677 -0.047949 -1.412558 3.884725 2.699658 1.218540 17.782739 3.499301 2.517609 0.297592 1.625482 1.165761 -9.731917 -2.186377 -3.443268 -20.938733 2.371645 -4.315437 7.727137 0.642789 -1.970772 5.789634 0.000000 0.000000 0.000000 4.705066 21.689182 -42.492010 113.168375 -57.870532 79.920830 30.299511 -25.302418 -3.857809 0.000000 0.000000 0.000000 -7.125000 0.000000 0.000000 3.028688 34.433760 0.785732 0.000000 0.000000 0.000000 -4.238477 4.388944 42.737246 -105.245078 -59.099694 -73.162456 -29.390632 -27.043229 -36.335903 0.000000 0.000000 0.000000 7.125000 0.000000 0.000000 2.273926 -10.162786 2.641395
0.396156 16.932334 -29.938024 -5.608559 0.781929 4.356082 0.000000 0.000000 0.000000 -8.216319 -6.408917 -31.788223 22.413521 19.859684 97.072644 -0.341817 -11.631249 10.051826 0.029700 -1.111943 -3.056919 0.000000 0.000000 0.000000 34.566606 16.641838 -15.399588 -6.893238 -15.240429 48.467783 -2.372973 -0.698953 -29.423764 -0.045908 -1.370326 3.768509 2.765962 1.214536 17.678370 3.475880 2.523045 0.207864 1.562928 1.164491 -9.768187 -2.207070 -3.459041 -20.729098 2.412025 -4.337568 7.602838 0.660444 -1.981442 5.719082 0.000000 0.000000 0.000000 4.774188 22.183950 -42.629220 113.484394 -57.809197 80.188355 30.211933 -25.460069 -3.704176 0.000000 0.000000 0.000000 -7.125000 0.000000 0.000000 2.955072 34.252907 0.780021 0.000000 0.000000 0.000000 -4.242380 4.170624 42.921527 -105.880277 -59.023583 -73.707508 -29.416477 -27.290400 -36.186845 0.000000 0.000000 0.000000 7.125000 0.000000 0.000000 2.226431 -10.017126 2.581789
0.399621 16.942893 -29.812180 -5.567849 0.903312 4.486028 0.000000 0.000000 0.000000 -8.234498 -6.734322 -32.373879 22.378076 19.863730 96.968306 -0.332921 -11.354536 9.567682 0.029700 -1.112054 -3.057224 0.000000 0.000000 0.000000 34.616933 16.370973 -14.886235 -6.782497 -15.143711 48.042778 -2.393592 -0.799967 -29.585330 -0.036735 -1.201582 3.303986 2.837627 1.242720 17.497738 3.416325 2.560956 0.179680 1.450885 1.178514 -9.691284 -2.129613 -3.503326 -20.735223 2.399832 -4.413335 7.510998 0.636805 -2.017302 5.690177 0.000000 0.000000 0.000000 4.928410 22.529612 -42.838175 113.825318 -57.740746 80.476568 30.079216 -25.590236 -3.667595 0.000000 0.000000 0.000000 -7.125000 0.000000 0.000000 2.845440 34.205934 0.754027 0.000000 0.000000 0.000000 -4.236200 3.788630 43.096533 -106.440021 -58.949479 -74.186885 -29.504272 -27.662750 -35.994657 0.000000 0.000000 0.000000 7.125000 0.000000 0.000000 2.136613 -9.844807 2.472711
0.403085 16.953452 -29.686336 -5.527139 1.024694 4.615973 0.000000 0.000000 0.000000 -8.252678 -7.059726 -32.959535 22.342632 19.867776 96.863967 -0.324025 -11.077823 9.083539 0.029700 -1.112165 -3.057529 0.000000 0.000000 0.000000 34.667259 16.100107 -14.372882 -6.671757 -15.046993 47.617774 -2.414210 -0.900980 -29.746896 -0.027562 -1.032839 2.839463 2.909293 1.270904 17.317106 3.356770 2.598867 0.151496 1.338842 1.192536 -9.614381 -2.052155 -3.547611 -20.741347 2.387638 -4.489102 7.419158 0.613166 -2.053163 5.661273 0.000000 0.000000 0.000000 5.082632 22.875275 -43.047130 114.166241 -57.672295 80.764782 29.946499 -25.720404 -3.631014 0.000000 0.000000 0.000000 -7.125000 0.000000 0.000000 2.735808 34.158960 0.728032 0.000000 0.000000 0.000000 -4.230020 3.406636 43.271540 -106.999765 -58.875375 -74.666262 -29.592066 -28.035099 -35.802468 0.000000 0.000000 0.000000 7.125000 0.000000 0.000000 2.046796 -9.672489 2.363633
0.406549 16.964010 -29.560491 -5.486429 1.146076 4.745919 0.000000 0.000000 0.000000 -8.270857 -7.385130 -33.545190 22.307187 19.871823 96.759628 -0.315129 -10.801110 8.599395 0.029700 -1.112276 -3.057834 0.000000 0.000000 0.000000 34.717586 15.829242 -13.859530 -6.561016 -14.950275 47.192770 -2.434829 -1.001993 -29.908462 -0.018389 -0.864095 2.374940 2.980958 1.299088 17.136473 3.297216 2.636778 0.123312 1.226798 1.206559 -9.537478 -1.974698 -3.591896 -20.747472 2.375444 -4.564869 7.327317 0.589527 -2.089023 5.632368 0.000000 0.000000 0.000000 5.236854 23.220937 -43.256084 114.507165 -57.603845 81.052996 29.813782 -25.850571 -3.594433 0.000000 0.000000 0.000000 -7.125000 0.000000 0.000000 2.626176 34.111987 0.702037 0.000000 0.000000 0.000000 -4.223840 3.024642 43.446547 -107.559510 -58.801271 -75.145639 -29.679860 -28.407449 -35.610279 0.000000 0.000000 0.000000 7.125000 0.000000 0.000000 1.956978 -9.500170 2.254555
0.409666 16.976435 -29.434713 -5.486390 1.253764 4.860694 0.000000 0.000000 0.000000 -8.240075 -7.694561 -34.136163 22.251645 19.877778 96.596301 -0.296489 -10.437976 8.252435 0.023558 -0.923876 -2.539832 0.000000 0.000000 0.000000 34.816310 15.598961 -13.313167 -6.450753 -14.849629 46.761754 -2.427168 -1.132913 -29.908580 -0.012993 -0.683979 1.879751 3.043834 1.332589 16.984988 3.281262 2.687863 0.051853 1.164129 1.227678 -9.527094 -1.963347 -3.631862 -20.542037 2.372344 -4.621233 7.175794 0.585160 -2.119262 5.553027 0.000000 0.000000 0.000000 5.327552 23.668017 -43.433549 114.886068 -57.523653 81.372548 29.683257 -26.031545 -3.558525 0.000000 0.000000 0.000000 -7.125000 0.000000 0.000000 2.518605 34.066142 0.675869 0.000000 0.000000 0.000000 -4.206657 2.957101 43.469525 -108.354209 -58.680614 -75.824009 -29.639760 -28.547036 -35.645558 0.000000 0.000000 0.000000 7.125000 0.000000 0.000000 1.986201 -9.524935 2.288955
0.412686 16.989377 -29.308952 -5.497613 1.357659 4.971269 0.000000 0.000000 0.000000 -8.195735 -7.999569 -34.728609 22.190538 19.884263 96.416638 -0.275150 -10.050911 7.943464 0.015715 -0.683273 -1.878298 0.000000 0.000000 0.000000 34.928436 15.379918 -12.757662 -6.340622 -14.747895 46.329073 -2.411677 -1.272115 -29.863990 -0.008642 -0.500714 1.376070 3.104276 1.367563 16.841574 3.277382 2.742596 -0.031591 1.115133 1.250763 -9.535131 -1.970303 -3.670633 -20.278017 2.371762 -4.672225 7.007743 0.586130 -2.147945 5.459717 0.000000 0.000000 0.000000 5.400659 24.143181 -43.602292 115.275489 -57.440209 81.700779 29.553339 -26.226588 -3.522803 0.000000 0.000000 0.000000 -7.125000 0.000000 0.000000 2.411606 34.020610 0.649653 0.000000 0.000000 0.000000 -4.186427 2.976638 43.450403 -109.213972 -58.547066 -76.557485 -29.564242 -28.622166 -35.743828 0.000000 0.000000 0.000000 7.125000 0.000000 0.000000 2.048389 -9.604277 2.363087
